<svg id="Layer_1" data-name="Layer 1" xmlns="http://www.w3.org/2000/svg" viewBox="0 0 177.26 118.14"><defs><style>.cls-1{fill:none;}.cls-2{fill:#7050e5;}.cls-3{fill:#f9f9f9;}.cls-4{fill:#fff;}</style></defs><title>drive</title><polygon class="cls-1" points="103.32 3.68 12.71 50.87 24.48 57.17 24.48 57.17 80.93 87.52 172.65 38.92 103.32 3.68"/><polygon class="cls-1" points="88.89 91.89 88.89 104.19 173.76 56.34 173.76 42.3 85.72 90.11 88.89 91.89"/><path class="cls-2" d="M551.84,628.44l-94.65,48.74L449,673.05v22.82l5.83,3.28v.06l74.41,42.52h0l8.65,4.85v-9.74l88.37-50.13V666ZM463.76,697c-1.13,0-2.05-1.62-2.05-3.62s.92-3.61,2.05-3.61,2.06,1.62,2.06,3.61S464.9,697,463.76,697Zm8.27,5c-1.14,0-2.06-1.61-2.06-3.61s.92-3.61,2.06-3.61,2.05,1.61,2.05,3.61S473.16,702,472,702Zm24.2,16.54-1.19-.64.41-15.41,1.19.63ZM499,720l-1.19-.63.41-15.42,1.19.64Zm2.8,1.49-1.19-.63.41-15.41,1.19.63Zm2.8,1.5-1.19-.63.41-15.42,1.19.64Zm2.67,1.43-1.19-.64.41-15.41,1.19.63Zm11.57,2.95-6.45-3.8v-6.2l6.45,3.8Zm-45.35-41.78h0l-11.77-6.3,90.61-47.19,69.33,35.24L529.93,716Zm149.28-.83-84.87,47.86V720.33l-3.18-1.78,88-47.81Z" transform="translate(-449 -628.44)"/><polygon class="cls-3" points="46.05 89.47 47.23 90.11 47.64 74.69 46.46 74.06 46.05 89.47"/><polygon class="cls-3" points="48.8 90.94 49.99 91.58 50.4 76.17 49.21 75.53 48.8 90.94"/><polygon class="cls-3" points="51.6 92.44 52.79 93.07 53.2 77.66 52.02 77.03 51.6 92.44"/><polygon class="cls-3" points="54.41 93.93 55.59 94.57 56 79.16 54.81 78.52 54.41 93.93"/><polygon class="cls-3" points="57.08 95.36 58.27 96 58.68 80.58 57.49 79.95 57.08 95.36"/><path class="cls-3" d="M463.76,689.75c-1.13,0-2.05,1.62-2.05,3.61s.92,3.62,2.05,3.62,2.06-1.62,2.06-3.62S464.9,689.75,463.76,689.75Z" transform="translate(-449 -628.44)"/><path class="cls-3" d="M472,694.79c-1.14,0-2.06,1.61-2.06,3.61S470.89,702,472,702s2.05-1.61,2.05-3.61S473.16,694.79,472,694.79Z" transform="translate(-449 -628.44)"/><polygon class="cls-4" points="63.39 95.15 69.84 98.94 69.84 92.75 63.39 88.95 63.39 95.15"/></svg>